<?xml version="1.0"?>
<svg width="104.17" height="74.69" xmlns="http://www.w3.org/2000/svg" xmlns:svg="http://www.w3.org/2000/svg" xmlns:xlink="http://www.w3.org/1999/xlink" enable-background="new 0 0 104.17 74.69" version="1.1" xml:space="preserve">
 <style type="text/css">.st0{clip-path:url(#SVGID_00000099664467228937928850000013875914502268045194_);fill:url(#SVGID_00000041282539559086855800000005526800184683962795_);}
	
		.st1{clip-path:url(#SVGID_00000150102787829510353900000009837282607437667729_);fill:url(#SVGID_00000049206358368909613630000011301413795370073999_);}
	
		.st2{clip-path:url(#SVGID_00000115476965845473354720000010017455549251003828_);fill:url(#SVGID_00000117641603928363624070000014853744674789842057_);}
	
		.st3{clip-path:url(#SVGID_00000095303533053971357970000018351637931392568707_);fill:url(#SVGID_00000149364163273218388180000015580006118480503937_);}</style>
 <g class="layer">
  <title>Layer 1</title>
  <g id="svg_1">
   <defs>
    <path d="m48.03,1.76l0,43.49l8.05,0l0,-39.73c0.11,-2.15 1.52,-3.23 4.24,-3.23l0,-0.53l-12.29,0z" id="SVGID_1_"/>
   </defs>
   <clipPath id="SVGID_00000168079727264692621910000018327180940991567748_">
    <use id="svg_2" overflow="visible" xlink:href="#SVGID_1_"/>
   </clipPath>
   <linearGradient id="SVGID_00000168797674362531477780000009280331198955505044_" x1="-0.15" x2="1.06" y1="0.26" y2="0.7">
    <stop offset="0" stop-color="#F5D485"/>
    <stop offset="0.53" stop-color="#947A41"/>
    <stop offset="1" stop-color="#F3D878"/>
   </linearGradient>
   <polygon clip-path="url(#SVGID_00000168079727264692621910000018327180940991567748_)" fill="url(#SVGID_00000168797674362531477780000009280331198955505044_)" id="svg_3" points="   49.98,-2.74 76.22,8.67 58.36,49.73 32.13,38.33  "/>
  </g>
  <g id="svg_4">
   <defs>
    <path d="m48.07,1.76l0,39.73c-0.11,2.15 -1.52,3.23 -4.24,3.23l0,0.53l12.29,0l0,-43.49l-8.05,0z" id="SVGID_00000023250353241186153800000005534788034010087615_"/>
   </defs>
   <clipPath id="SVGID_00000009582947252078092490000012491893224792079785_">
    <use id="svg_5" overflow="visible" xlink:href="#SVGID_00000023250353241186153800000005534788034010087615_"/>
   </clipPath>
   <linearGradient id="SVGID_00000099620609023867270200000004201158284596020122_" x1="-0.07" x2="1.14" y1="0.29" y2="0.73">
    <stop offset="0" stop-color="#F5D485"/>
    <stop offset="0.53" stop-color="#947A41"/>
    <stop offset="1" stop-color="#F3D878"/>
   </linearGradient>
   <polygon clip-path="url(#SVGID_00000009582947252078092490000012491893224792079785_)" fill="url(#SVGID_00000099620609023867270200000004201158284596020122_)" id="svg_6" points="   45.79,-2.74 72.03,8.67 54.17,49.74 27.94,38.33  "/>
  </g>
  <g id="svg_7">
   <defs>
    <path d="m62.67,2.29c3.03,0.02 5.01,0.97 5.95,2.86c0.92,1.76 1.38,4.87 1.38,9.31s-0.46,7.55 -1.38,9.32c-0.95,1.91 -2.96,2.86 -6.04,2.86l-0.42,0l0,0.53l0.42,0c4.62,0 8.43,-1.23 11.41,-3.68c2.98,-2.45 4.48,-5.46 4.48,-9.03s-1.49,-6.57 -4.47,-9.02c-2.97,-2.44 -6.75,-3.67 -11.33,-3.68l0,0.53z" id="SVGID_00000010304925872363041810000009882669743302812292_"/>
   </defs>
   <clipPath id="SVGID_00000111164205887546519960000010393408253286061241_">
    <use id="svg_8" overflow="visible" xlink:href="#SVGID_00000010304925872363041810000009882669743302812292_"/>
   </clipPath>
   <linearGradient id="SVGID_00000163755090211040411090000007182648069298294189_" x1="-0.62" x2="0.91" y1="0.04" y2="0.67">
    <stop offset="0" stop-color="#F5D485"/>
    <stop offset="0.53" stop-color="#947A41"/>
    <stop offset="1" stop-color="#F3D878"/>
   </linearGradient>
   <polygon clip-path="url(#SVGID_00000111164205887546519960000010393408253286061241_)" fill="url(#SVGID_00000163755090211040411090000007182648069298294189_)" id="svg_9" points="   64.76,-4.21 87.77,5.8 75.88,33.14 52.87,23.13  "/>
  </g>
  <g id="svg_10">
   <defs>
    <path d="m41.58,19.82c-4.62,0 -8.43,1.23 -11.41,3.68c-2.98,2.45 -4.47,5.46 -4.47,9.03s1.49,6.57 4.47,9.03c2.97,2.44 6.74,3.67 11.33,3.68l0,-0.53c-3.03,-0.02 -5.01,-0.97 -5.96,-2.86c-0.92,-1.76 -1.38,-4.87 -1.38,-9.32s0.46,-7.56 1.38,-9.32c0.95,-1.91 2.97,-2.86 6.04,-2.86l0.42,0l0,-0.53l-0.42,0z" id="SVGID_00000114055006281371141390000012364275520409270713_"/>
   </defs>
   <clipPath id="SVGID_00000094591123800815608520000013815020432202595211_">
    <use id="svg_11" overflow="visible" xlink:href="#SVGID_00000114055006281371141390000012364275520409270713_"/>
   </clipPath>
   <linearGradient id="SVGID_00000163043410059186448210000018016919311030511546_" x1="0.07" x2="1.6" y1="0.32" y2="0.95">
    <stop offset="0" stop-color="#F5D485"/>
    <stop offset="0.53" stop-color="#947A41"/>
    <stop offset="1" stop-color="#F3D878"/>
   </linearGradient>
   <polygon clip-path="url(#SVGID_00000094591123800815608520000013815020432202595211_)" fill="url(#SVGID_00000163043410059186448210000018016919311030511546_)" id="svg_12" points="   28.29,13.86 51.29,23.86 39.41,51.2 16.4,41.2  "/>
  </g>
  <g id="svg_13" transform="matrix(1 0 0 1 0 0)">
   <path d="m97.47,65.49l4.86,0l0,-0.58l-5.46,0l0,7.91l5.59,0l0,-0.59l-4.99,0l0,-3.12l4.63,0l0,-0.55l-4.63,0l0,-3.07zm-8.44,-0.01l2.87,0c1.31,0 1.94,0.96 1.93,1.89c-0.01,1.11 -0.62,1.89 -2,1.89l-2.8,0l0,-3.78zm2.9,4.31c1.73,0 2.58,-1.13 2.57,-2.42c-0.01,-1.23 -0.88,-2.46 -2.6,-2.46l-3.48,0l0,7.91l0.61,0l0,-2.99l2.16,0l2.73,2.99l0.8,0l-2.79,-3.03zm-11.36,-4.31l2.87,0c1.31,0 1.94,0.96 1.93,1.89c-0.01,1.11 -0.62,1.89 -2,1.89l-2.8,0l0,-3.78zm2.9,4.31c1.73,0 2.58,-1.13 2.56,-2.42c-0.01,-1.23 -0.88,-2.46 -2.6,-2.46l-3.48,0l0,7.91l0.61,0l0,-2.99l2.16,0l2.73,2.99l0.8,0l-2.78,-3.03zm-10.99,-4.3l4.86,0l0,-0.58l-5.46,0l0,7.91l5.59,0l0,-0.59l-4.99,0l0,-3.12l4.63,0l0,-0.55l-4.63,0l0,-3.07zm-3.47,-0.58l-0.6,0l0,7.91l0.6,0l0,-7.91zm-5.66,5.18c3.43,0 3.43,-5.17 0,-5.17l-3.47,0l0,7.91l0.61,0l0,-2.73l2.86,0l0,-0.01zm0,-4.61c2.63,0 2.63,4.06 0,4.06l-2.86,0l0,-4.06l2.86,0zm-15.17,0.01l4.86,0l0,-0.58l-5.46,0l0,7.91l5.59,0l0,-0.59l-4.99,0l0,-3.12l4.63,0l0,-0.55l-4.63,0l0,-3.07zm-7.12,0c2.28,0 3.37,1.64 3.4,3.29c0.03,1.69 -1.05,3.46 -3.4,3.46l-2.07,0l0,-6.74l2.07,0l0,-0.01zm0,-0.58l-2.68,0l0,7.91l2.68,0c2.77,0 4.06,-2.03 4.01,-4.04c-0.05,-1.95 -1.33,-3.87 -4.01,-3.87m-14.2,0l0,7.91l5.06,0l0,-0.58l-4.45,0l0,-7.33l-0.61,0zm-3.39,0l0,4.92c0,3.39 -4.86,3.4 -4.86,0l0,-4.92l-0.6,0l0,4.92c0,4.15 6.06,4.13 6.06,0l0,-4.92l-0.6,0zm-13.02,5.4l2.12,-4.81l2.12,4.81l-4.24,0zm6.01,2.51l-3.55,-7.91l-0.67,0l-3.54,7.91l0.65,0l0.86,-1.94l4.72,0l0.87,1.94l0.66,0zm-11.28,-2.73c3.43,0 3.43,-5.17 0,-5.17l-3.47,0l0,7.91l0.61,0l0,-2.73l2.86,0l0,-0.01zm0,-4.61c2.63,0 2.63,4.06 0,4.06l-2.86,0l0,-4.06l2.86,0z" fill="#ffffff" id="svg_14"/>
  </g>
 </g>
</svg>